<svg width="200" height="300" viewBox="0 0 200 300" fill="none" xmlns="http://www.w3.org/2000/svg">
<rect width="200" height="300" fill="#D9D9D9"/>
<path d="M70.6372 146.091V157H68.1656L64.2238 151.268H64.1599V157H61.1982V146.091H63.7124L67.5903 151.801H67.6755V146.091H70.6372ZM82.6063 151.545C82.6063 152.76 82.3701 153.784 81.8978 154.619C81.4255 155.45 80.7881 156.08 79.9855 156.51C79.183 156.936 78.2881 157.149 77.3009 157.149C76.3066 157.149 75.4081 156.934 74.6056 156.505C73.8066 156.071 73.1709 155.439 72.6986 154.608C72.2298 153.774 71.9955 152.753 71.9955 151.545C71.9955 150.331 72.2298 149.308 72.6986 148.477C73.1709 147.643 73.8066 147.012 74.6056 146.586C75.4081 146.157 76.3066 145.942 77.3009 145.942C78.2881 145.942 79.183 146.157 79.9855 146.586C80.7881 147.012 81.4255 147.643 81.8978 148.477C82.3701 149.308 82.6063 150.331 82.6063 151.545ZM79.5594 151.545C79.5594 150.892 79.4724 150.342 79.2984 149.894C79.1279 149.443 78.874 149.102 78.5367 148.871C78.2029 148.637 77.7909 148.52 77.3009 148.52C76.8108 148.52 76.3971 148.637 76.0597 148.871C75.7259 149.102 75.472 149.443 75.298 149.894C75.1276 150.342 75.0423 150.892 75.0423 151.545C75.0423 152.199 75.1276 152.751 75.298 153.202C75.472 153.65 75.7259 153.99 76.0597 154.225C76.3971 154.456 76.8108 154.571 77.3009 154.571C77.7909 154.571 78.2029 154.456 78.5367 154.225C78.874 153.99 79.1279 153.65 79.2984 153.202C79.4724 152.751 79.5594 152.199 79.5594 151.545ZM86.9648 157V146.091H91.6737C92.4833 146.091 93.1918 146.251 93.799 146.57C94.4063 146.89 94.8786 147.339 95.2159 147.918C95.5533 148.497 95.7219 149.173 95.7219 149.947C95.7219 150.729 95.5479 151.405 95.1999 151.977C94.8555 152.549 94.3707 152.989 93.7457 153.298C93.1243 153.607 92.3981 153.761 91.5671 153.761H88.7546V151.46H90.9705C91.3185 151.46 91.6151 151.4 91.8601 151.279C92.1087 151.155 92.2987 150.979 92.43 150.752C92.565 150.525 92.6325 150.256 92.6325 149.947C92.6325 149.635 92.565 149.369 92.43 149.148C92.2987 148.925 92.1087 148.754 91.8601 148.637C91.6151 148.516 91.3185 148.456 90.9705 148.456H89.9265V157H86.9648ZM96.8086 157V146.091H99.7702V150.352H103.691V146.091H106.652V157H103.691V152.739H99.7702V157H96.8086ZM118.627 151.545C118.627 152.76 118.391 153.784 117.918 154.619C117.446 155.45 116.809 156.08 116.006 156.51C115.203 156.936 114.309 157.149 113.321 157.149C112.327 157.149 111.429 156.934 110.626 156.505C109.827 156.071 109.191 155.439 108.719 154.608C108.25 153.774 108.016 152.753 108.016 151.545C108.016 150.331 108.25 149.308 108.719 148.477C109.191 147.643 109.827 147.012 110.626 146.586C111.429 146.157 112.327 145.942 113.321 145.942C114.309 145.942 115.203 146.157 116.006 146.586C116.809 147.012 117.446 147.643 117.918 148.477C118.391 149.308 118.627 150.331 118.627 151.545ZM115.58 151.545C115.58 150.892 115.493 150.342 115.319 149.894C115.148 149.443 114.895 149.102 114.557 148.871C114.223 148.637 113.811 148.52 113.321 148.52C112.831 148.52 112.418 148.637 112.08 148.871C111.746 149.102 111.493 149.443 111.319 149.894C111.148 150.342 111.063 150.892 111.063 151.545C111.063 152.199 111.148 152.751 111.319 153.202C111.493 153.65 111.746 153.99 112.08 154.225C112.418 154.456 112.831 154.571 113.321 154.571C113.811 154.571 114.223 154.456 114.557 154.225C114.895 153.99 115.148 153.65 115.319 153.202C115.493 152.751 115.58 152.199 115.58 151.545ZM119.186 148.477V146.091H128.668V148.477H125.386V157H122.467V148.477H119.186ZM139.838 151.545C139.838 152.76 139.602 153.784 139.129 154.619C138.657 155.45 138.02 156.08 137.217 156.51C136.414 156.936 135.52 157.149 134.532 157.149C133.538 157.149 132.64 156.934 131.837 156.505C131.038 156.071 130.402 155.439 129.93 154.608C129.461 153.774 129.227 152.753 129.227 151.545C129.227 150.331 129.461 149.308 129.93 148.477C130.402 147.643 131.038 147.012 131.837 146.586C132.64 146.157 133.538 145.942 134.532 145.942C135.52 145.942 136.414 146.157 137.217 146.586C138.02 147.012 138.657 147.643 139.129 148.477C139.602 149.308 139.838 150.331 139.838 151.545ZM136.791 151.545C136.791 150.892 136.704 150.342 136.53 149.894C136.359 149.443 136.105 149.102 135.768 148.871C135.434 148.637 135.022 148.52 134.532 148.52C134.042 148.52 133.629 148.637 133.291 148.871C132.957 149.102 132.703 149.443 132.529 149.894C132.359 150.342 132.274 150.892 132.274 151.545C132.274 152.199 132.359 152.751 132.529 153.202C132.703 153.65 132.957 153.99 133.291 154.225C133.629 154.456 134.042 154.571 134.532 154.571C135.022 154.571 135.434 154.456 135.768 154.225C136.105 153.99 136.359 153.65 136.53 153.202C136.704 152.751 136.791 152.199 136.791 151.545Z" fill="white"/>
</svg>
